<?xml version="1.0" standalone="no"?>
<!DOCTYPE svg PUBLIC "-//W3C//DTD SVG 20010904//EN"
 "http://www.w3.org/TR/2001/REC-SVG-20010904/DTD/svg10.dtd">
<svg version="1.0" xmlns="http://www.w3.org/2000/svg"
 width="680.000000pt" height="680.000000pt" viewBox="0 0 680.000000 680.000000"
 preserveAspectRatio="xMidYMid meet">
<metadata>
Created by potrace 1.14, written by Peter Selinger 2001-2017
</metadata>
<g transform="translate(0.000000,680.000000) scale(0.100000,-0.100000)"
fill="#000000" stroke="none">
<path d="M5729 6546 c-2 -3 -16 -7 -29 -10 -54 -12 -100 -32 -100 -43 0 -7 4
-22 10 -35 17 -42 92 -289 89 -292 -2 -2 -40 -14 -84 -29 -44 -14 -110 -37
-147 -51 -37 -14 -78 -28 -90 -30 -13 -3 -79 -23 -148 -45 -69 -22 -197 -62
-285 -89 -178 -56 -571 -179 -624 -195 -33 -11 -35 -10 -70 33 -266 330 -602
482 -1061 480 -173 -1 -290 -19 -450 -67 -264 -79 -468 -219 -630 -431 -27
-35 -50 -68 -52 -73 -2 -5 -210 39 -463 97 -253 58 -467 107 -475 109 -30 7
-198 45 -325 75 -255 60 -266 62 -292 45 -13 -9 -24 -21 -24 -28 -3 -27 3 -53
14 -64 9 -9 469 -129 566 -148 10 -2 35 -8 57 -14 21 -6 203 -52 404 -101 201
-50 382 -95 403 -101 l39 -10 -114 -65 c-104 -60 -250 -162 -344 -242 -125
-106 -290 -284 -364 -392 -13 -19 -27 -37 -30 -40 -5 -4 -41 -56 -55 -77 -1
-2 -67 -23 -146 -47 -79 -25 -290 -90 -469 -146 -179 -56 -342 -107 -362 -112
-75 -20 -99 -80 -47 -119 21 -16 27 -15 88 3 36 11 98 28 136 39 80 23 309 91
405 120 36 10 74 21 85 24 11 2 56 15 100 29 44 14 85 26 90 26 6 0 -15 -53
-46 -117 -85 -175 -130 -288 -170 -428 -43 -146 -49 -171 -54 -200 -3 -16 -10
-46 -15 -65 -21 -84 -53 -294 -67 -451 -9 -108 -9 -500 0 -604 45 -482 156
-901 344 -1293 112 -235 241 -433 402 -620 29 -34 57 -62 62 -62 5 0 6 12 4
28 -3 15 -16 104 -30 197 -14 94 -28 177 -30 185 -2 8 -6 40 -10 70 -6 67 -15
136 -20 170 -3 14 -8 56 -11 95 l-7 70 75 -76 c42 -42 98 -93 124 -115 27 -21
51 -41 54 -44 34 -35 280 -192 407 -261 17 -9 43 -41 62 -75 75 -132 207 -294
312 -379 250 -204 553 -306 889 -299 411 9 737 139 990 395 103 104 149 164
244 317 14 23 30 42 35 42 14 0 203 110 227 131 11 11 24 19 28 19 6 0 115 78
126 91 3 3 12 10 22 15 9 5 36 27 60 48 23 22 54 49 67 60 l24 21 -7 -35 c-3
-19 -8 -46 -11 -60 -3 -14 -7 -38 -10 -55 -2 -16 -14 -75 -25 -130 -12 -55
-24 -111 -26 -125 -7 -33 -53 -249 -59 -277 -11 -49 49 -10 165 107 113 112
186 213 277 380 100 185 222 524 268 746 2 11 8 40 14 65 6 25 13 61 15 80 5
31 20 124 31 189 8 44 20 161 32 295 10 123 10 537 -1 665 -5 58 -10 121 -11
140 -4 39 -42 292 -50 330 -3 14 -10 48 -15 75 -20 97 -79 311 -120 430 -50
145 -83 223 -161 378 -44 88 -55 117 -41 113 18 -6 58 -15 187 -46 44 -11 107
-27 140 -35 33 -9 67 -18 76 -20 40 -8 474 -117 477 -119 1 -2 -36 -27 -82
-57 l-85 -54 27 -42 c15 -24 30 -43 34 -43 4 0 42 23 84 50 42 28 80 50 84 50
4 0 -4 -42 -17 -92 -37 -148 -37 -136 10 -148 23 -6 56 -15 74 -20 l31 -8 22
92 c12 50 26 109 32 130 l10 39 52 -93 c29 -52 58 -96 64 -98 6 -2 29 9 52 23
37 23 40 28 28 43 -7 9 -24 37 -38 62 -13 25 -28 53 -34 62 -15 25 -2 31 36
20 57 -17 179 -44 183 -40 5 5 45 184 45 202 0 12 -32 22 -139 42 -8 2 -26 6
-40 9 l-26 7 30 16 c17 10 53 32 82 51 l52 33 -26 42 c-14 22 -27 43 -29 45
-3 4 -48 -22 -147 -87 -37 -24 -70 -43 -72 -41 -2 3 12 69 31 148 19 79 33
145 31 147 -2 2 -24 8 -48 14 -24 5 -55 12 -69 15 -25 6 -26 5 -54 -112 -15
-65 -30 -126 -33 -137 -4 -14 -16 1 -50 60 -25 44 -52 89 -59 101 l-14 22 -44
-26 c-50 -30 -51 -27 10 -130 47 -80 47 -81 -43 -58 -32 8 -73 17 -90 20 -36
6 -123 25 -253 57 -47 11 -92 21 -100 23 -25 5 -237 53 -408 93 l-162 38 -63
79 c-88 111 -194 217 -332 334 -25 21 -206 144 -261 178 -23 14 -52 3 286 102
151 44 316 92 365 106 50 15 142 42 205 60 185 54 260 76 340 100 119 37 111
39 136 -35 11 -36 24 -64 28 -64 40 8 136 40 136 45 0 4 -9 36 -20 70 -21 68
-18 77 20 81 22 3 27 -6 78 -167 30 -93 56 -171 58 -173 4 -6 124 30 130 39 3
5 -18 80 -46 166 -28 87 -53 165 -55 174 -2 12 19 22 96 45 75 22 98 32 95 44
-3 8 -17 56 -32 106 l-27 91 -95 -28 c-53 -16 -98 -32 -101 -35 -3 -3 -17 30
-31 74 l-25 79 -65 -20 c-36 -11 -67 -21 -69 -23 -2 -2 6 -35 18 -74 12 -38
20 -74 17 -79 -3 -5 -17 -11 -31 -13 -24 -5 -26 0 -77 156 -51 159 -60 181
-69 172z"/>
</g>
</svg>
